HIERARCHY
ROOT hip
{
	OFFSET 0.000000 0.000000 0.000000 
	CHANNELS 6 Xposition Yposition Zposition Xrotation Zrotation Yrotation
	JOINT abdomen
	{
		OFFSET 0.000000 3.402643 0.000000 
		CHANNELS 3 Xrotation Zrotation Yrotation
		JOINT chest
		{
			OFFSET 0.000000 8.438565 -0.680529 
			CHANNELS 3 Xrotation Zrotation Yrotation
			JOINT neck
			{
				OFFSET 0.000000 10.207942 -0.272212 
				CHANNELS 3 Xrotation Zrotation Yrotation
				JOINT head
				{
					OFFSET 0.000000 3.130431 0.000000 
					CHANNELS 3 Xrotation Zrotation Yrotation
					End Site
					{
						OFFSET 0.000000 3.130435 0.000000 
					}
				}
			}
			JOINT lCollar
			{
				OFFSET 3.470700 6.669187 -0.816635 
				CHANNELS 3 Yrotation Zrotation Xrotation
				JOINT lShldr
				{
					OFFSET 3.198488 0.000000 0.000000 
					CHANNELS 3 Zrotation Yrotation Xrotation
					JOINT lForeArm
					{
						OFFSET 10.139888 0.000000 0.000000 
						CHANNELS 3 Yrotation Zrotation Xrotation
						JOINT lHand
						{
							OFFSET 8.370511 0.000000 0.000000 
							CHANNELS 3 Zrotation Yrotation Xrotation
							End Site
							{
								OFFSET 4.083176 0.000000 0.000000 
							}
						}
					}
				}
			}
			JOINT rCollar
			{
				OFFSET -3.470700 6.669187 -0.816635 
				CHANNELS 3 Yrotation Zrotation Xrotation
				JOINT rShldr
				{
					OFFSET -3.198488 0.000000 0.000000 
					CHANNELS 3 Zrotation Yrotation Xrotation
					JOINT rForeArm
					{
						OFFSET -10.139888 0.000000 0.000000 
						CHANNELS 3 Yrotation Zrotation Xrotation
						JOINT rHand
						{
							OFFSET -8.370511 0.000000 0.000000 
							CHANNELS 3 Zrotation Yrotation Xrotation
							End Site
							{
								OFFSET -4.083176 0.000000 0.000000 
							}
						}
					}
				}
			}
		}
	}
	JOINT lThigh
	{
		OFFSET 5.308129 -1.633274 1.361059 
		CHANNELS 3 Xrotation Zrotation Yrotation
		JOINT lShin
		{
			OFFSET -2.041588 -20.007561 0.000000 
			CHANNELS 3 Xrotation Zrotation Yrotation
			JOINT lFoot
			{
				OFFSET 0.000000 -19.190928 -1.224953 
				CHANNELS 3 Xrotation Yrotation Zrotation
				End Site
				{
					OFFSET 0.000000 -2.449906 4.627600 
				}
			}
		}
	}
	JOINT rThigh
	{
		OFFSET -5.308129 -1.633274 1.361059 
		CHANNELS 3 Xrotation Zrotation Yrotation
		JOINT rShin
		{
			OFFSET 2.041588 -20.007561 0.000000 
			CHANNELS 3 Xrotation Zrotation Yrotation
			JOINT rFoot
			{
				OFFSET 0.000000 -19.190928 -1.224953 
				CHANNELS 3 Xrotation Yrotation Zrotation
				End Site
				{
					OFFSET 0.000000 -2.449906 4.627600 
				}
			}
		}
	}
}
MOTION
Frames: 15
Frame Time: 0.033333
-0.493102 49.164677 -3.219181 -6.767583 -0.067883 0.017821 0.000000 0.000000 0.000000 -1.894531 -0.029281 -0.125985 5.947024 0.114754 -0.149459 6.171865 -0.165866 0.075403 0.199097 11.168360 -1.203586 -1.453720 10.258489 -7.622559 2.100874 -3.957943 12.998493 2.706965 -4.105947 -3.559996 -0.189339 -10.062605 -1.188473 4.714910 -13.584771 -1.052555 -1.022158 2.479870 5.918554 -1.180794 5.138659 -3.469876 6.384112 5.662625 2.444864 6.494692 -3.980905 -4.496474 -5.981003 0.054534 -1.169425 6.137393 -4.254607 -4.119239 6.952342 4.041786 5.096903 -6.014738 0.026088 -0.308215 
-0.497631 49.176636 -3.277169 -6.826180 -0.087268 -0.028616 0.000000 0.000000 0.000000 -1.806643 -0.087847 -0.006995 5.966812 0.245581 -0.164177 6.054683 -0.107316 -0.024520 0.152499 11.402714 -1.126482 -1.613788 10.159864 -7.788028 2.074079 -3.909721 13.131132 3.319492 -4.175385 -3.604765 -0.256140 -10.052438 -1.131211 4.793202 -13.731127 -0.978759 -1.004755 2.464332 6.005476 -1.107275 5.221365 -3.456314 6.428310 5.600008 2.417012 6.219701 -3.906609 -4.034734 -5.685847 0.058456 -1.230554 6.216831 -4.196996 -4.050415 6.628774 3.972585 4.758865 -5.722123 0.002382 -0.201238 
-0.468436 49.167957 -3.320435 -6.865235 -0.019391 -0.105087 0.000000 0.000000 0.000000 -1.767584 -0.146415 -0.005247 5.927729 0.176190 -0.181636 6.103510 0.117076 -0.102768 0.207159 11.440708 -1.089732 -1.645271 10.100663 -7.906415 2.108925 -3.849184 13.471601 3.204688 -4.221712 -3.598742 -0.139075 -10.074209 -1.082130 4.742283 -13.927012 -0.840123 -1.010400 2.485142 5.830641 -1.567246 5.516373 -3.494064 6.336432 5.497540 2.425897 6.371931 -3.953540 -3.667308 -5.686172 0.044993 -1.193854 6.022205 -4.353961 -4.134629 7.058722 4.011924 5.064444 -5.917216 0.003652 -0.243422 
-0.471834 49.166317 -3.360930 -6.767601 -0.145464 -0.168285 0.000000 0.000000 0.000000 -1.845705 -0.078084 -0.056078 5.810303 0.217694 -0.189566 6.357420 0.058549 -0.041359 0.182581 11.451462 -1.170584 -1.578286 10.266352 -7.991589 1.937920 -3.732045 13.720713 3.175986 -4.233291 -3.597055 -0.171794 -10.004818 -1.165305 4.493816 -13.908711 -0.749694 -1.030883 2.556168 5.481843 -1.252838 5.193006 -3.474832 6.236102 5.690948 2.431781 6.591582 -3.961376 -4.697095 -5.922807 0.052990 -1.148591 5.920122 -4.213620 -4.032866 6.881816 4.030858 5.023236 -5.741370 0.004924 -0.253374 
-0.458998 49.162540 -3.404937 -6.884788 -0.145428 -0.226581 0.000000 0.000000 0.000000 -1.757814 -0.078088 -0.007369 5.869150 0.269416 -0.133699 6.464842 -0.078071 0.012681 0.089986 11.315901 -1.067338 -1.360741 10.208289 -7.931534 1.977894 -3.717949 14.553234 3.590285 -4.579138 -3.630776 -0.121680 -10.152696 -1.078217 4.656316 -14.044235 -0.962950 -0.978697 2.397931 5.651110 -1.140477 5.121526 -3.467545 6.149423 5.682134 2.432439 6.782790 -3.954122 -4.408631 -5.902803 0.055481 -1.168740 5.931512 -4.214778 -4.022646 7.014892 3.990199 5.060673 -5.770740 0.000698 -0.233952 
-0.452078 49.166573 -3.452808 -6.855508 -0.193916 -0.308718 0.000000 0.000000 0.000000 -1.738284 -0.107372 -0.006507 5.917982 0.395906 -0.192117 6.201150 -0.243926 0.059062 0.055497 11.609619 -1.050824 -1.593220 10.316469 -7.719423 1.992090 -3.807936 14.226005 5.314346 -3.774395 -3.717462 -0.097670 -10.162775 -1.053910 4.705493 -14.073375 -0.945950 -0.989198 2.405442 5.690634 -1.131007 5.611274 -3.458117 6.111828 5.692896 2.473876 6.747771 -3.961471 -4.298846 -5.854198 0.055515 -1.157904 5.921283 -4.195220 -3.971379 6.818834 3.999392 5.105441 -5.604958 0.013681 -0.217516 
-0.432694 49.176258 -3.486685 -6.865252 -0.126043 -0.394981 0.000000 0.000000 0.000000 -1.718756 -0.146418 -0.083497 5.927239 0.271942 -0.115507 6.103500 -0.204883 0.165195 -0.030834 11.445642 -1.026505 -1.461836 10.522744 -7.497328 1.962635 -3.786115 15.005652 5.456785 -4.606789 -3.755251 -0.044738 -10.231506 -1.023496 4.587290 -13.995643 -0.978916 -0.987923 2.418219 5.642264 -0.552520 5.303583 -3.422848 6.302609 5.562287 2.326200 6.271393 -3.873983 -4.115724 -5.587309 0.045189 -1.225336 5.956371 -4.277426 -3.999230 6.701741 3.969616 5.066569 -5.497809 0.021693 -0.171411 
-0.431313 49.165180 -3.516547 -6.904319 -0.145422 -0.470672 0.000000 0.000000 0.000000 -1.679697 -0.195229 0.025256 5.947392 0.340848 -0.139652 6.259756 -0.165877 0.104445 -0.088050 11.768108 -0.987303 -1.626964 10.444932 -7.388264 2.048870 -3.917960 14.205830 4.056357 -4.500784 -3.657448 -0.038925 -10.222498 -0.997311 4.781682 -14.083220 -0.793673 -0.930418 2.459200 5.280993 -1.331699 5.198017 -3.479490 6.166738 5.592626 2.312986 6.639769 -3.884518 -4.502656 -5.785542 0.062021 -1.176107 5.760271 -4.286851 -4.026491 7.033227 3.989764 5.227787 -5.604858 0.001846 -0.212037 
-0.434208 49.178898 -3.546474 -6.865302 -0.252086 -0.565353 0.000000 0.000000 0.000000 -1.679691 -0.117137 0.032732 5.879183 0.352654 -0.092333 6.513658 -0.204942 0.114900 -0.023402 11.659317 -0.988557 -1.511788 10.366153 -7.557688 1.964363 -3.844900 14.403078 3.806081 -4.731888 -3.643277 -0.075962 -10.046263 -1.008018 4.632720 -14.035094 -0.756899 -0.975909 2.489374 5.595365 -1.235374 5.389734 -3.473972 6.138518 5.651048 2.409330 6.492207 -3.886651 -4.053550 -5.637979 0.059635 -1.197939 5.940629 -4.136436 -3.865155 6.408989 3.911750 5.014152 -5.224423 0.006288 -0.124823 
-0.428795 49.175629 -3.574700 -6.796988 -0.329698 -0.673595 0.000000 0.000000 0.000000 -1.738282 -0.039045 0.059779 5.889132 0.328922 0.008478 6.669907 -0.224481 0.134532 0.061341 11.579415 -1.037369 -1.466341 10.257729 -7.781020 1.984666 -3.778202 14.380982 3.336075 -4.438538 -3.606243 -0.140529 -10.172509 -1.064619 4.876227 -13.915876 -1.151506 -0.992669 2.349404 5.805813 -0.764725 5.564816 -3.436452 5.924568 5.700468 2.429459 6.751623 -3.855731 -3.807857 -5.734492 0.045615 -1.215057 5.893078 -4.117826 -3.854631 6.377026 3.993205 5.307542 -5.194836 0.000828 -0.180307 
-0.424643 49.177773 -3.583232 -6.767684 -0.320020 -0.723743 0.000000 0.000000 0.000000 -1.777344 -0.048805 0.060108 5.859842 0.374717 0.042887 6.806605 -0.361150 0.235939 -0.011559 11.522412 -1.071896 -1.424922 10.277872 -7.660211 2.115087 -3.827543 14.713190 4.908572 -3.869050 -3.694713 -0.106542 -10.143785 -1.094499 4.918001 -13.934910 -1.270690 -0.979384 2.276004 6.037606 -0.627110 5.563272 -3.418451 5.981344 5.699049 2.378894 6.626291 -3.846709 -4.091003 -5.714429 0.047979 -1.235236 5.854198 -4.136981 -3.907512 6.342853 4.028465 5.383961 -5.145938 0.009010 -0.208626 
-0.417972 49.161919 -3.595578 -6.796969 -0.300607 -0.813781 0.000000 0.000000 0.000000 -1.738283 -0.087850 0.090557 5.899150 0.358143 0.052473 6.738253 -0.312334 0.215250 0.031376 11.472404 -1.047138 -1.415194 10.248543 -7.669342 2.136401 -3.818996 14.850686 4.271798 -4.340325 -3.669379 -0.038114 -10.037843 -1.059194 4.770979 -13.956336 -0.783087 -0.942842 2.508278 5.439164 -0.507309 5.531295 -3.410435 5.808836 5.663076 2.378033 7.052641 -3.865007 -4.015031 -5.941655 0.055821 -1.179371 5.575092 -4.217913 -3.955516 6.922896 4.059736 5.436719 -5.399620 0.014495 -0.259577 
-0.411933 49.169964 -3.605908 -6.904354 -0.232675 -0.938622 0.000000 0.000000 0.000000 -1.630863 -0.117140 0.149820 5.948360 0.332494 0.098573 6.757748 -0.478267 0.269318 0.048491 11.451786 -0.933953 -1.522873 10.209474 -7.645349 2.100525 -3.819587 15.132866 5.385458 -4.415680 -3.751240 -0.052911 -10.184317 -0.965175 5.019048 -13.896454 -0.873306 -0.937146 2.469184 5.593840 -0.672739 5.668159 -3.420796 6.096905 5.581359 2.402218 6.631226 -3.894704 -3.722997 -5.696840 0.061696 -1.197244 5.686097 -4.330464 -4.073800 6.868701 4.125618 5.689243 -5.350536 0.022235 -0.309348 
-0.420114 49.187962 -3.615487 -6.933667 -0.261744 -0.934967 0.000000 0.000000 0.000000 -1.630861 -0.078093 0.099880 6.055257 0.256128 0.086780 6.708972 -0.204966 0.182561 0.036817 11.383948 -0.930723 -1.532818 10.258286 -7.646069 2.092623 -3.746232 16.106321 4.942242 -6.058926 -3.760238 0.036748 -10.165906 -0.952354 5.007056 -13.974981 -0.736321 -0.936950 2.507011 5.614693 -0.724630 5.713968 -3.424701 6.384091 5.574983 2.335490 6.106274 -3.835508 -3.878311 -5.412545 0.077204 -1.242683 6.022646 -4.255940 -3.965070 6.223027 4.046738 5.629598 -5.028649 0.007022 -0.220029 
-0.420239 49.169212 -3.620595 -6.972714 -0.232642 -0.957876 0.000000 0.000000 0.000000 -1.591799 -0.097619 0.090603 6.045373 0.217273 0.062351 6.923827 -0.058569 0.118905 0.030574 11.354774 -0.904072 -1.544163 10.228558 -7.736045 2.164998 -3.697705 16.420237 4.408520 -6.318092 -3.730740 0.082045 -10.166417 -0.913138 5.019900 -14.023379 -0.885762 -0.930536 2.432497 5.709963 -0.820158 5.669109 -3.439377 6.067764 5.512848 2.414510 6.694455 -3.865971 -3.199566 -5.646265 0.052609 -1.232964 5.711293 -4.315439 -4.051124 6.887545 4.116698 5.583073 -5.321284 0.020414 -0.299480 
